<svg width="150" height="65" viewBox="0 0 470 182" fill="none" xmlns="http://www.w3.org/2000/svg">
<path d="M90.8333 40L40 101H85.75L80.6667 141.667L131.5 80.6667H85.75L90.8333 40Z" fill="white"/>
<path d="M203.468 82.5201V101.337H176.326V127.111H155V50.7021H209.17V69.5192H176.326V82.5201H203.468Z" fill="white"/>
<path d="M238.913 50.7021V127.111H219.297V50.7021H238.913Z" fill="white"/>
<path d="M271.278 67.2384C274.319 67.2384 277.284 67.9226 280.173 69.2911C283.139 70.5836 285.571 72.2562 287.472 74.309V68.949H307.088V127.111H287.472V117.417C286.028 120.61 283.823 123.309 280.858 125.514C277.893 127.719 274.319 128.821 270.138 128.821C265.804 128.821 261.736 127.719 257.935 125.514C254.134 123.309 251.016 119.926 248.584 115.364C246.227 110.727 245.048 104.911 245.048 97.9159C245.048 91.3774 246.227 85.8273 248.584 81.2656C251.016 76.7039 254.21 73.2446 258.163 70.8877C262.193 68.4548 266.564 67.2384 271.278 67.2384ZM275.384 86.3976C272.571 86.3976 270.214 87.538 268.313 89.8188C266.488 92.0997 265.576 94.7987 265.576 97.9159C265.576 101.033 266.526 103.656 268.427 105.785C270.328 107.914 272.837 108.978 275.954 108.978C277.626 108.978 279.337 108.56 281.086 107.724C282.834 106.811 284.317 105.481 285.533 103.732C286.826 101.907 287.472 99.5885 287.472 96.7755V91.1874C285.8 89.8188 283.899 88.6784 281.77 87.7661C279.717 86.8537 277.588 86.3976 275.384 86.3976Z" fill="white"/>
<path d="M337.514 67.2384C341.316 67.2384 344.813 67.8086 348.006 68.949C351.275 70.0134 353.898 71.496 355.875 73.3967V88.7925C353.898 87.576 351.655 86.4356 349.147 85.3712C346.638 84.2307 343.939 83.6605 341.049 83.6605C339.225 83.6605 337.59 84.0407 336.146 84.801C334.777 85.4852 334.093 86.5876 334.093 88.1082C334.093 89.1726 334.511 89.9709 335.347 90.5031C336.184 91.0353 337.818 91.6055 340.251 92.2137L343.786 93.1261C353.898 95.7111 358.954 101.147 358.954 109.434C358.954 113.236 357.814 116.619 355.533 119.584C353.328 122.473 350.401 124.754 346.752 126.427C343.178 128.023 339.301 128.821 335.119 128.821C330.786 128.821 326.756 128.213 323.031 126.997C319.305 125.704 316.112 124.146 313.451 122.321V107.039C316.188 108.712 319.267 110.118 322.689 111.259C326.186 112.399 329.303 112.97 332.04 112.97C334.245 112.97 335.842 112.703 336.83 112.171C337.894 111.639 338.426 110.689 338.426 109.32C338.426 108.256 337.818 107.457 336.602 106.925C335.385 106.317 333.637 105.633 331.356 104.872L325.54 103.048C321.282 101.755 318.165 99.7406 316.188 97.0035C314.211 94.1905 313.223 90.7692 313.223 86.7397C313.223 82.7102 314.287 79.2509 316.416 76.3618C318.545 73.4727 321.434 71.2299 325.083 69.6333C328.809 68.0367 332.952 67.2384 337.514 67.2384Z" fill="white"/>
<path d="M399.417 67.2384C405.347 67.2384 410.175 69.2531 413.9 73.2826C417.701 77.3121 419.602 83.2804 419.602 91.1874V127.111H399.987L399.873 94.2665C399.873 91.3774 399.074 89.3627 397.478 88.2222C395.881 87.0058 394.095 86.3976 392.118 86.3976C389.989 86.3976 388.202 86.9678 386.758 88.1082C385.313 89.1726 384.059 90.4651 382.994 91.9857V127.111H363.379V50.7021H382.994V76.4758C384.819 73.9669 387.024 71.8001 389.609 69.9754C392.27 68.1507 395.539 67.2384 399.417 67.2384Z" fill="white"/>
<path d="M418.615 51.1471V53.5735H415.694V60.9559H412.921V53.5735H410V51.1471H418.615Z" fill="white"/>
<path d="M430 51V61H427.227V56.1471L425.196 58.4265H424.365L422.334 56.1471V61H419.561V51H420.54L424.781 55.2647L429.021 51H430Z" fill="white"/>
</svg>
